<svg width="62" height="50" xmlns="http://www.w3.org/2000/svg" xmlns:xlink="http://www.w3.org/1999/xlink" xml:space="preserve" overflow="hidden"><defs><clipPath id="clip0"><rect x="108" y="119" width="62" height="50"/></clipPath></defs><g clip-path="url(#clip0)" transform="translate(-108 -119)"><path d="M21.5727 43.7739 17.6292 43.7739 17.6292 42.5355C17.2525 43.0084 16.8718 43.353 16.487 43.5694 15.8138 43.9462 15.0483 44.1345 14.1907 44.1345 12.8041 44.1345 11.5697 43.6576 10.4877 42.7038 9.1972 41.5657 8.55198 40.0588 8.55198 38.1832 8.55198 36.2755 9.21324 34.7526 10.5357 33.6145 11.5858 32.7089 12.792 32.2559 14.1546 32.2559 14.9481 32.2559 15.6935 32.4242 16.3909 32.7609 16.7916 32.9533 17.2044 33.2699 17.6292 33.7107L17.6292 25.7156 21.5727 25.7156 21.5727 43.7739ZM17.7495 38.1952C17.7495 37.4899 17.501 36.8907 17.0041 36.3978 16.5071 35.9048 15.906 35.6585 15.2006 35.6585 14.4151 35.6585 13.7699 35.955 13.2649 36.5481 12.8562 37.029 12.6518 37.578 12.6518 38.1952 12.6518 38.8125 12.8562 39.3615 13.2649 39.8424 13.7619 40.4355 14.4071 40.732 15.2006 40.732 15.9139 40.732 16.5171 40.4876 17.0101 39.9987 17.5029 39.5098 17.7495 38.9087 17.7495 38.1952ZM36.3629 43.7739 32.4195 43.7739 32.4195 42.5355C32.0428 43.0084 31.662 43.353 31.2773 43.5694 30.6039 43.9462 29.8386 44.1345 28.9809 44.1345 27.5942 44.1345 26.3599 43.6576 25.2778 42.7038 23.9874 41.5657 23.3421 40.0588 23.3421 38.1832 23.3421 36.2755 24.0035 34.7526 25.3259 33.6145 26.3761 32.7089 27.5822 32.2559 28.9448 32.2559 29.7383 32.2559 30.4838 32.4242 31.1811 32.7609 31.5819 32.9533 31.9947 33.2699 32.4195 33.7107L32.4195 32.6166 36.3629 32.6166 36.3629 43.7739ZM32.5396 38.1952C32.5396 37.4899 32.2912 36.8907 31.7943 36.3978 31.2973 35.9048 30.6962 35.6585 29.9908 35.6585 29.2054 35.6585 28.5602 35.955 28.0551 36.5481 27.6464 37.029 27.442 37.578 27.442 38.1952 27.442 38.8125 27.6464 39.3615 28.0551 39.8424 28.5521 40.4355 29.1973 40.732 29.9908 40.732 30.7042 40.732 31.3074 40.4876 31.8003 39.9987 32.2933 39.5098 32.5396 38.9087 32.5396 38.1952ZM51.598 38.2073C51.598 40.115 50.9368 41.6379 49.6142 42.776 48.5643 43.6816 47.358 44.1345 45.9954 44.1345 45.2019 44.1345 44.4565 43.9663 43.7592 43.6296 43.3584 43.4372 42.9456 43.1206 42.5208 42.6798L42.5208 49.3525 38.5773 49.3525 38.5773 32.6166 42.5208 32.6166 42.5208 33.855C42.8735 33.3902 43.2542 33.0454 43.663 32.821 44.3362 32.4443 45.1017 32.2559 45.9593 32.2559 47.346 32.2559 48.5803 32.7329 49.6623 33.6867 50.9528 34.8248 51.598 36.3317 51.598 38.2073ZM47.4983 38.1952C47.4983 37.562 47.2979 37.013 46.8971 36.5481 46.3922 35.955 45.7428 35.6585 44.9494 35.6585 44.2361 35.6585 43.6329 35.9029 43.1399 36.3918 42.6471 36.8807 42.4005 37.4818 42.4005 38.1952 42.4005 38.9006 42.6491 39.4998 43.1459 39.9927 43.6429 40.4855 44.244 40.732 44.9494 40.732 45.7428 40.732 46.3881 40.4355 46.8851 39.8424 47.2939 39.3615 47.4983 38.8125 47.4983 38.1952ZM61.7355 36.2595C61.1824 35.995 60.6213 35.8629 60.0522 35.8629 58.7538 35.8629 57.9122 36.3918 57.5274 37.4499 57.3831 37.8345 57.311 38.3516 57.311 39.0008L57.311 43.7739 53.3676 43.7739 53.3676 32.6166 57.311 32.6166 57.311 34.4441C57.7279 33.7949 58.1766 33.3259 58.6576 33.0375 59.3068 32.6527 60.0762 32.4603 60.9659 32.4603 61.1743 32.4603 61.4309 32.4723 61.7355 32.4964L61.7355 36.2595Z" fill="#0D2192" fill-rule="evenodd" transform="matrix(1 0 0 1.00183 103.806 108.741)"/><path d="M38.5463 43.855 42.5168 43.855 42.8588 53.1774 40.5316 54.8082 38.2042 53.1774Z" fill="#0D2192" transform="matrix(1 0 0 1.00183 103.806 108.741)"/><path d="M44.4141 15.7312C44.5761 15.7312 44.7074 15.8625 44.7074 16.0245L44.7074 26.0394C44.7074 26.2014 44.5761 26.3327 44.4141 26.3327L29.937 26.3327C29.775 26.3327 29.6437 26.2014 29.6437 26.0394L29.6437 16.0245C29.6437 15.8625 29.775 15.7312 29.937 15.7312Z" fill="#0D2192" transform="matrix(1 0 0 1.00183 103.806 108.741)"/><path d="M29.6437 15.7312 35.2158 15.7312 35.2158 26.3327 29.6437 26.3327Z" fill="#FFFFFF" fill-opacity="0.08" transform="matrix(1 0 0 1.00183 103.806 108.741)"/><path d="M48.7204 25.6487C49.0217 25.6487 49.266 25.893 49.266 26.1942L49.266 27.6476C49.266 27.9489 49.0217 28.1932 48.7204 28.1932L25.4323 28.1932C25.131 28.1932 24.8867 27.9489 24.8867 27.6476L24.8867 26.1942C24.8867 25.893 25.131 25.6487 25.4323 25.6487Z" fill="#0D2192" transform="matrix(1 0 0 1.00183 103.806 108.741)"/><path d="M24.8867 25.6487 32.4297 25.6487 32.4297 28.7804 24.8867 28.7804Z" fill="#FFFFFF" fill-opacity="0.08" transform="matrix(1 0 0 1.00183 103.806 108.741)"/></g></svg>