<svg width="41" height="38" xmlns="http://www.w3.org/2000/svg" xmlns:xlink="http://www.w3.org/1999/xlink" xml:space="preserve" overflow="hidden"><defs><clipPath id="clip0"><rect x="110" y="119" width="41" height="38"/></clipPath></defs><g clip-path="url(#clip0)" transform="translate(-110 -119)"><path d="M277.433 55.0083 310.225 55.0083" stroke="#0078D4" stroke-width="2.5625" stroke-linejoin="round" stroke-miterlimit="10" fill="none" fill-rule="evenodd" transform="matrix(1 0 0 1.00198 -163.333 82.7117)"/><path d="M0 0 4.48383e-05 14.4867" stroke="#0078D4" stroke-width="2.5625" stroke-linejoin="round" stroke-miterlimit="10" fill="none" fill-rule="evenodd" transform="matrix(1 0 0 -1.00198 145.533 138.65)"/><path d="M0 0 4.48383e-05 14.4867" stroke="#0078D4" stroke-width="2.5625" stroke-linejoin="round" stroke-miterlimit="10" fill="none" fill-rule="evenodd" transform="matrix(1 0 0 -1.00198 115.467 151.317)"/><path d="M273.333 68.8458C273.333 65.9212 275.704 63.55 278.629 63.55 281.554 63.55 283.925 65.9212 283.925 68.8458 283.925 71.7705 281.554 74.1417 278.629 74.1417 275.704 74.1417 273.333 71.7705 273.333 68.8458Z" fill="#00B050" fill-rule="evenodd" transform="matrix(1 0 0 1.00198 -163.333 82.7117)"/><path d="M303.742 41.5125C303.742 38.5878 306.113 36.2167 309.038 36.2167 311.962 36.2167 314.333 38.5878 314.333 41.5125 314.333 44.4372 311.962 46.8083 309.038 46.8083 306.113 46.8083 303.742 44.4372 303.742 41.5125Z" fill="#00B050" fill-rule="evenodd" transform="matrix(1 0 0 1.00198 -163.333 82.7117)"/></g></svg>